<svg width="129" height="129" viewBox="0 0 129 129" fill="none" xmlns="http://www.w3.org/2000/svg">
<path d="M39.8796 0H30.8621C16.1394 0 4.16113 11.9783 4.16113 26.7009V26.9943C4.16113 30.1402 4.78741 33.1988 6.02123 36.0909L6.5622 37.3559H6.65999C7.54842 34.9777 9.81425 33.2903 12.4858 33.2903H14.5602V20.8064H14.5664C14.5664 26.5511 19.225 31.2097 24.9697 31.2097H31.2116L32.4558 27.4749C32.9573 25.9769 34.3575 24.9677 35.9347 24.9677C36.9063 24.9677 37.8405 25.3547 38.5271 26.0414L39.5342 27.0484L40.5412 26.0414C41.2278 25.3547 42.162 24.9677 43.1337 24.9677C44.7108 24.9677 46.1132 25.9769 46.6125 27.4749C47.3553 29.7054 49.4443 31.2097 51.7954 31.2097H56.1814V33.2903H58.2558C60.8941 33.2903 63.1391 34.9319 64.0546 37.2581H64.0816L64.6268 36.016C65.9251 33.0635 66.5826 29.9301 66.5826 26.6988C66.5805 11.9783 54.6022 0 39.8796 0V0Z" fill="#F5AC3F"/>
<path d="M119.084 0H80.6585C75.1906 0 70.7422 4.44842 70.7422 9.91635C70.7422 10.3283 70.7692 10.7403 70.8192 11.146L74.0629 37.0896C74.6809 42.0415 78.9108 45.7742 83.9023 45.7742H91.5486V49.0741C91.5486 51.8434 93.802 54.0968 96.5713 54.0968C97.8967 54.0968 99.1908 53.56 100.123 52.6258L106.975 45.7742H115.842C120.832 45.7742 125.064 42.0415 125.682 37.0896L128.925 11.1481C128.973 10.7382 129 10.3283 129 9.91635C129 4.44842 124.552 0 119.084 0V0ZM124.795 10.6279L121.552 36.5736C121.192 39.4449 118.736 41.6129 115.842 41.6129H105.252L97.1789 49.6837C96.6899 50.1789 95.7099 49.7774 95.7099 49.0741V41.6129H83.9002C81.0039 41.6129 78.5509 39.4449 78.1909 36.5736L74.9472 10.6279C74.918 10.3907 74.9035 10.1535 74.9035 9.91635C74.9035 6.74337 77.4835 4.16129 80.6585 4.16129H119.086C122.259 4.16129 124.839 6.74337 124.839 9.91635C124.839 10.1535 124.824 10.3907 124.795 10.6279Z" fill="#DD5228"/>
<path d="M112.712 8.32263C110.584 8.32263 108.584 9.15073 107.08 10.6571L98.0419 19.6934C94.3487 23.3865 92.1245 28.1553 91.6501 33.2925H83.2256V37.4537H91.5482H93.6288C99.5524 37.4537 105.118 35.1484 109.306 30.958L118.345 21.9217C119.849 20.4153 120.677 18.4158 120.677 16.2894C120.677 11.8951 117.103 8.32263 112.712 8.32263ZM98.1938 26.2328L102.767 30.8061C100.653 32.0545 98.3061 32.8555 95.8447 33.1572C96.1443 30.6937 96.9454 28.3468 98.1938 26.2328ZM106.364 28.0139C106.279 28.0992 106.188 28.1741 106.102 28.2573L100.743 22.8976C100.826 22.8122 100.901 22.7186 100.984 22.6354L106.113 17.5066L111.493 22.8871L106.364 28.0139ZM115.403 18.9797L114.435 19.9451L109.055 14.5646L110.022 13.5971C110.732 12.8896 111.71 12.4839 112.712 12.4839C114.81 12.4839 116.516 14.1901 116.516 16.2894C116.516 17.3048 116.121 18.2598 115.403 18.9797Z" fill="#4EB6B8"/>
<path d="M116.516 62.4193H66.5806C64.2857 62.4193 62.4194 64.2856 62.4194 66.5806V76.8299C58.4328 73.0077 53.3373 70.4423 47.807 69.5892L43.6956 68.9567L43.6977 65.8711C51.2754 62.6232 56.5415 55.7945 57.9023 47.8548H58.2893C62.8604 47.8548 66.5806 44.1346 66.5806 39.5634C66.5806 34.9589 62.85 31.2138 58.2601 31.2117V29.1311H51.7956C50.3391 29.1311 49.0491 28.201 48.5872 26.8195C47.8028 24.4683 45.6119 22.8891 43.1359 22.8891C41.8085 22.8891 40.5518 23.3344 39.5364 24.1542C38.519 23.3323 37.2623 22.887 35.9348 22.887C33.4589 22.887 31.2679 24.4663 30.4835 26.8174L29.7678 28.9604C27.0193 28.3092 24.9677 25.8332 24.9677 22.887V20.8064H20.8064V22.887C20.8064 25.0634 21.4827 27.0816 22.6312 28.7545C19.1856 27.737 16.6472 24.5786 16.6472 20.8064H16.641H12.486H12.4797V31.2096C7.89189 31.2138 4.16129 34.9589 4.16129 39.5634C4.16129 44.1346 7.88148 47.8548 12.4839 47.8548H12.8376C14.1962 55.7945 19.4644 62.6253 27.0421 65.8732L27.0442 68.9567L22.9329 69.5892C9.64587 71.6345 0 82.8783 0 96.3234V101.952C0 112.276 8.39956 120.677 18.7258 120.677H33.6732C33.4401 121.331 33.2903 122.026 33.2903 122.758V129H112.355V122.758C112.355 120.049 110.609 117.76 108.194 116.899V112.355C108.194 110.06 106.327 108.194 104.032 108.194H99.6733L99.2572 104.032H116.516C118.811 104.032 120.677 102.166 120.677 99.8709V66.5806C120.677 64.2856 118.811 62.4193 116.516 62.4193ZM66.5806 66.5806H70.7419V99.8709H66.5806V66.5806ZM83.4235 108.194H79.0645C76.7696 108.194 74.9032 110.06 74.9032 112.355V116.516H70.7419V104.032H83.8396L83.4235 108.194ZM66.5806 116.516H62.4194V114.435C62.4194 110.994 59.6188 108.194 56.1774 108.194H54.0968V99.8709H62.4194C62.4194 102.166 64.2857 104.032 66.5806 104.032V116.516ZM43.6935 112.355H56.1774C57.3259 112.355 58.2581 113.289 58.2581 114.435V116.516H41.6524H41.6129V114.435C41.6129 113.289 42.545 112.355 43.6935 112.355ZM46.1154 73.5404L42.7822 83.5358L38.1174 78.8689L42.5305 72.9869L46.1154 73.5404ZM62.4194 39.5634C62.4194 41.8396 60.5676 43.6935 58.2601 43.6935V35.3709C60.553 35.3751 62.4194 37.2539 62.4194 39.5634ZM8.32258 39.5634C8.32258 37.2539 10.1868 35.3751 12.4797 35.373V43.6956H12.4527C10.1764 43.6935 8.32258 41.8396 8.32258 39.5634ZM16.641 43.785V30.0798C18.8527 32.0689 21.7677 33.2903 24.9698 33.2903H31.2118H32.7119L34.4305 28.1323C34.7821 27.0795 36.2781 26.7321 37.0584 27.5102L39.5323 29.9904L42.0145 27.5123C42.7885 26.7321 44.2865 27.0795 44.6402 28.1344C45.6681 31.2179 48.5435 33.2903 51.7956 33.2903H54.0989V43.785C54.0989 51.7435 49.3737 58.9134 42.0602 62.0469C40.5268 62.7044 39.5364 64.2045 39.5364 65.869L39.5323 70.0511L35.371 75.5981L31.2076 70.049L31.2034 65.8732C31.2034 64.2066 30.213 62.7064 28.6796 62.049C21.3682 58.9113 16.641 51.7435 16.641 43.785ZM28.2115 72.989L32.6245 78.871L27.9576 83.5379L24.6265 73.5424L28.2115 72.989ZM20.5276 74.4017L26.1412 91.2383L35.371 82.0065L44.6028 91.2383L50.208 74.4121C55.1246 75.879 59.442 78.9667 62.4173 83.2029V95.7096H54.0947V87.3871H49.9334V108.194H45.7201C45.4517 103.564 41.6379 99.8709 36.9419 99.8709C33.954 99.8709 31.1889 101.344 29.5431 103.816L28.3301 105.636L20.8064 102.624V87.3871H16.6452V95.7096H4.18834C4.4505 85.658 11.0815 77.1815 20.5276 74.4017ZM4.16129 101.952V99.8709H16.6452V103.171L13.0935 106.722L16.0355 109.665L19.2272 106.473L29.9238 110.753L33.0094 106.123C33.8812 104.812 35.3522 104.032 36.946 104.032C39.4802 104.032 41.5359 106.063 41.6004 108.581C39.191 109.446 37.4516 111.731 37.4516 114.435V116.516H18.7258C10.6966 116.516 4.16129 109.983 4.16129 101.952ZM108.194 124.839H37.4516V122.758C37.4516 121.612 38.3837 120.677 39.5323 120.677H41.6524H106.113C107.261 120.677 108.194 121.612 108.194 122.758V124.839ZM104.032 116.516H79.0645V112.355H104.032V116.516ZM87.6056 108.194L89.2701 91.5483H93.8246L95.4891 108.194H87.6056ZM116.516 99.8709H98.841L97.9672 91.1364C97.7549 88.9975 95.9739 87.3871 93.8267 87.3871H89.2722C87.1249 87.3871 85.3418 88.9975 85.1317 91.1343L84.2557 99.8709H74.9032V66.5806H116.516V99.8709Z" fill="black"/>
<path d="M45.774 39.5323C46.9231 39.5323 47.8546 38.6007 47.8546 37.4516C47.8546 36.3025 46.9231 35.371 45.774 35.371C44.6249 35.371 43.6934 36.3025 43.6934 37.4516C43.6934 38.6007 44.6249 39.5323 45.774 39.5323Z" fill="black"/>
<path d="M24.9679 39.5323C26.117 39.5323 27.0485 38.6007 27.0485 37.4516C27.0485 36.3025 26.117 35.371 24.9679 35.371C23.8187 35.371 22.8872 36.3025 22.8872 37.4516C22.8872 38.6007 23.8187 39.5323 24.9679 39.5323Z" fill="black"/>
<path d="M45.7742 47.8548V45.7742H24.9678V47.8548C24.9678 53.5912 29.6347 58.258 35.371 58.258C41.1073 58.258 45.7742 53.5912 45.7742 47.8548ZM29.4849 49.9355H41.2571C40.3978 52.3573 38.0842 54.0968 35.371 54.0968C32.6578 54.0968 30.3442 52.3573 29.4849 49.9355Z" fill="black"/>
</svg>
