<svg width="130" height="129" viewBox="0 0 130 129" fill="none" xmlns="http://www.w3.org/2000/svg">
<path d="M77.5809 49.9354H52.4196C44.3261 49.9354 37.7422 56.4687 37.7422 64.4999C37.7422 68.6009 38.8556 72.6332 40.9607 76.162L40.9922 76.214C41.7554 75.4109 42.8311 74.9032 44.0325 74.9032H48.2261H48.2533C48.3875 72.5853 50.3061 70.7419 52.6754 70.7419C53.8538 70.7419 54.9861 71.2059 55.8206 72.034L56.6132 72.8225L57.282 70.8314C58.1354 68.293 60.5278 66.5806 63.2243 66.5806C65.5978 66.5806 67.7659 67.9101 68.8269 70.0178C70.3366 73.0119 73.4209 74.9032 76.7946 74.9032H81.7745H81.7766H85.968C87.1904 74.9032 88.2829 75.4317 89.0482 76.2598L89.0545 76.2494C91.1512 73.0431 92.2583 69.3291 92.2583 65.507V64.4999C92.2583 56.4687 85.6745 49.9354 77.5809 49.9354Z" fill="#DD5228"/>
<path d="M37.7419 37.4515C37.7419 27.1274 29.2752 18.7257 18.871 18.7257C8.46677 18.7257 0 27.1274 0 37.4515C0 47.7757 8.46677 56.1773 18.871 56.1773C29.2752 56.1773 37.7419 47.7757 37.7419 37.4515ZM33.5484 37.4515C33.5484 44.7733 28.0695 50.8342 20.9677 51.8496V47.8547C24.4358 47.8547 27.2581 45.0542 27.2581 41.6128C27.2581 38.1714 24.4358 35.3709 20.9677 35.3709H16.7742C15.6189 35.3709 14.6774 34.4367 14.6774 33.2902C14.6774 32.1438 15.6189 31.2096 16.7742 31.2096H20.9677C22.1231 31.2096 23.0645 32.1438 23.0645 33.2902H27.2581C27.2581 29.8488 24.4358 27.0483 20.9677 27.0483V23.0535C28.0695 24.0688 33.5484 30.1297 33.5484 37.4515ZM4.19355 37.4515C4.19355 30.1297 9.67242 24.0688 16.7742 23.0535V27.0483C13.3061 27.0483 10.4839 29.8488 10.4839 33.2902C10.4839 36.7316 13.3061 39.5322 16.7742 39.5322H20.9677C22.1231 39.5322 23.0645 40.4664 23.0645 41.6128C23.0645 42.7592 22.1231 43.6935 20.9677 43.6935H16.7742C15.6189 43.6935 14.6774 42.7592 14.6774 41.6128H10.4839C10.4839 45.0542 13.3061 47.8547 16.7742 47.8547V51.8496C9.67242 50.8342 4.19355 44.7733 4.19355 37.4515Z" fill="#DD5228"/>
<path d="M65 41.6129C76.5616 41.6129 85.9677 32.2791 85.9677 20.8064C85.9677 9.33377 76.5616 0 65 0C53.4384 0 44.0322 9.33377 44.0322 20.8064C44.0322 32.2791 53.4384 41.6129 65 41.6129ZM48.3705 18.7258C48.7542 15.6922 49.9619 12.9166 51.7651 10.6155L54.6209 13.4493L57.5858 10.5073L54.73 7.67342C57.049 5.88406 59.8461 4.68561 62.9032 4.30485V8.32258H67.0967V4.30485C70.1538 4.68561 72.9509 5.88406 75.27 7.67342L72.4142 10.5073L75.379 13.4493L78.2348 10.6155C80.038 12.9166 81.2458 15.6922 81.6295 18.7258H77.5806V22.8871H81.6295C81.2458 25.9207 80.038 28.6963 78.2348 30.9974L75.379 28.1636L72.4142 31.1056L75.27 33.9395C72.9509 35.7288 70.1538 36.9273 67.0967 37.308V33.2903H62.9032V37.308C59.8461 36.9273 57.049 35.7288 54.73 33.9395L57.5858 31.1056L54.6209 28.1636L51.7651 30.9974C49.9619 28.6963 48.7542 25.9207 48.3705 22.8871H52.4193V18.7258H48.3705Z" fill="#4EB6B8"/>
<path d="M121.613 18.7259V14.5646H117.419V18.7259H113.226V14.5646H109.032V18.7259H104.838V14.5646H100.645V18.7259H92.2578V56.1775H130V18.7259H121.613ZM100.645 22.8872V27.0484H104.838V22.8872H109.032V27.0484H113.226V22.8872H117.419V27.0484H121.613V22.8872H125.806V31.2097H96.4514V22.8872H100.645ZM96.4514 52.0162V35.371H125.806V52.0162H96.4514Z" fill="#F5AC3F"/>
<path d="M109.032 44.9127L106.321 42.2225L103.356 45.1645L109.032 50.7968L118.902 41.0032L115.937 38.0612L109.032 44.9127Z" fill="#F5AC3F"/>
<path d="M63.8403 89.2493L66.1573 88.0987C67.1595 87.6014 67.906 86.7463 68.2603 85.6914C68.6147 84.6365 68.5329 83.5088 68.0339 82.5142L67.0966 80.6541V76.9839H62.9031V81.1452C62.9031 81.4677 62.9786 81.7881 63.1232 82.0752L64.2828 84.3743L61.9658 85.5249L63.8403 89.2493Z" fill="black"/>
<path d="M72.5484 93.2129L70.0302 89.8839C67.1115 92.0582 62.8886 92.0603 59.9678 89.8839L57.4517 93.2129C59.6428 94.8463 62.2533 95.7097 65 95.7097C67.7468 95.7097 70.3573 94.8463 72.5484 93.2129Z" fill="black"/>
<path d="M68.2561 24.7493L70.1306 21.0249L66.2411 19.0962L60.1919 13.0935L57.2271 16.0355L63.7585 22.5167L68.2561 24.7493Z" fill="#4EB6B8"/>
<path d="M85.6153 104.143C84.7787 101.669 82.4471 99.871 79.6773 99.871H78.22C81.7468 96.7438 83.8708 92.2329 83.8708 87.4641V85.3064H85.9676C89.4357 85.3064 92.2579 82.5059 92.2579 79.0645C92.2579 75.6231 89.4357 72.8226 85.9676 72.8226H83.8729V68.6613L79.6794 68.6592V72.8205H76.7963C74.2005 72.8205 71.8647 71.389 70.7052 69.0837C69.2794 66.2581 66.4131 64.5 63.2239 64.5C59.9194 64.5 56.965 66.4163 55.6168 69.3521C54.7152 68.9006 53.7129 68.6613 52.675 68.6613C49.8968 68.6613 47.5337 70.3945 46.586 72.8226H44.0321C40.5641 72.8226 37.7418 75.6231 37.7418 79.0645C37.7418 82.5059 40.5641 85.3064 44.0321 85.3064H46.1289V87.462C46.1289 92.2308 48.2529 96.7438 51.7776 99.871H50.3224C47.5526 99.871 45.221 101.669 44.3844 104.143C39.0565 106.999 35.645 112.54 35.645 118.597C35.645 122.038 38.4673 124.839 41.9353 124.839H44.4179C45.286 127.254 47.5924 129 50.3224 129H79.6773C82.4073 129 84.7137 127.254 85.5818 124.839H88.0644C91.5324 124.839 94.3547 122.038 94.3547 118.597C94.3547 112.54 90.9432 106.999 85.6153 104.143ZM85.9676 76.9839C87.1229 76.9839 88.0644 77.9181 88.0644 79.0645C88.0644 80.211 87.1229 81.1452 85.9676 81.1452H83.8708V76.9839H85.9676ZM44.0321 81.1452C42.8768 81.1452 41.9353 80.211 41.9353 79.0645C41.9353 77.9181 42.8768 76.9839 44.0321 76.9839H46.131V81.1452H44.0321ZM56.4303 98.169C52.6624 95.9261 50.3224 91.823 50.3224 87.462L50.3245 75.1529C50.3245 73.8671 51.3792 72.8205 52.675 72.8205C53.2936 72.8205 53.8995 73.0702 54.3357 73.503L57.5291 76.6718L59.2715 71.4868C59.8397 69.7973 61.427 68.6613 63.2239 68.6613C64.8132 68.6613 66.2411 69.5372 66.952 70.9479C68.8286 74.6702 72.6007 76.9839 76.7942 76.9839H79.6773V87.4641C79.6773 91.823 77.3373 95.924 73.5694 98.1669L70.7073 99.871H59.2882L56.4303 98.169ZM50.3224 104.032H79.6773C80.8326 104.032 81.7741 104.966 81.7741 106.113V116.516H48.2257V106.113C48.2257 104.966 49.1671 104.032 50.3224 104.032ZM39.8386 118.597C39.8386 115.031 41.4153 111.689 44.0321 109.386V120.677H41.9353C40.78 120.677 39.8386 119.743 39.8386 118.597ZM79.6773 124.839H50.3224C49.1671 124.839 48.2257 123.904 48.2257 122.758V120.677H81.7741V122.758C81.7741 123.904 80.8326 124.839 79.6773 124.839ZM88.0644 120.677H85.9676V109.386C88.5844 111.689 90.1612 115.031 90.1612 118.597C90.1612 119.743 89.2197 120.677 88.0644 120.677Z" fill="black"/>
<path d="M10.4841 64.5001C10.4841 62.409 10.6057 60.2993 10.8468 58.229L6.68053 57.7526C6.42053 59.9809 6.29053 62.2509 6.29053 64.5001C6.29053 82.9367 15.2312 100.481 30.2084 111.431L32.6973 108.081C18.7873 97.9111 10.4841 81.6196 10.4841 64.5001Z" fill="black"/>
<path d="M119.361 60.3741C119.464 61.7328 119.516 63.1226 119.516 64.5C119.516 81.6196 111.213 97.911 97.3052 108.079L99.794 111.429C114.769 100.479 123.71 82.9346 123.71 64.5C123.71 63.0186 123.653 61.5247 123.542 60.0599L119.361 60.3741Z" fill="black"/>
</svg>
