<svg width="38" height="38" viewBox="0 0 38 38" fill="none" xmlns="http://www.w3.org/2000/svg">
<path d="M18.556 0C14.886 0 11.2984 1.08829 8.24685 3.12725C5.19533 5.16621 2.81696 8.06426 1.4125 11.4549C0.00804007 14.8456 -0.359431 18.5766 0.356557 22.1761C1.07254 25.7756 2.83983 29.082 5.43494 31.6771C8.03004 34.2722 11.3364 36.0395 14.9359 36.7555C18.5354 37.4714 22.2664 37.104 25.6571 35.6995C29.0477 34.295 31.9458 31.9167 33.9848 28.8652C36.0237 25.8136 37.112 22.226 37.112 18.556C37.112 13.6346 35.157 8.91485 31.6771 5.43493C28.1972 1.955 23.4774 0 18.556 0V0ZM25.635 9.45H23.069C21.056 9.45 20.669 10.406 20.669 11.81V14.9H25.469V19.746H20.669V32.188H15.661V19.751H11.477V14.9H15.662V11.331C15.662 7.183 18.196 4.924 21.896 4.924L25.636 4.93V9.45H25.635Z" fill="white"/>
<path d="M20.289 33.8151C28.2259 33.8151 34.66 27.0022 34.66 18.5981C34.66 10.194 28.2259 3.3811 20.289 3.3811C12.3521 3.3811 5.91797 10.194 5.91797 18.5981C5.91797 27.0022 12.3521 33.8151 20.289 33.8151Z" fill="white"/>
<path d="M22.2681 10.8512H24.5191V6.93615C23.4309 6.81672 22.3368 6.75896 21.2421 6.76315C18.0021 6.76315 15.7821 8.80115 15.7821 12.5472V15.9942H12.2061V20.3702H15.7821V31.3802H20.1661V20.3712H23.5971L24.1421 15.9952H20.1651V12.9812C20.1651 11.7162 20.5071 10.8512 22.2651 10.8512H22.2681Z" fill="#262629"/>
</svg>
