<svg width="526" height="503" viewBox="0 0 526 503" fill="none" xmlns="http://www.w3.org/2000/svg">
<g opacity="0.2">
<path d="M460.164 131.377H65.6066C29.3624 131.377 0 101.978 0 65.6886C0 29.3991 29.3624 0 65.6066 0H460.164C496.408 0 525.771 29.3991 525.771 65.6886C526 101.978 496.408 131.377 460.164 131.377Z" fill="#DD5228"/>
<path d="M170.669 503H65.6066C29.3624 503 0 473.601 0 437.311C0 401.022 29.3624 371.623 65.6066 371.623H170.669C206.913 371.623 236.276 401.022 236.276 437.311C236.276 473.601 206.913 503 170.669 503Z" fill="#F5AC3F"/>
<path d="M310.829 317.189H65.6066C29.3624 317.189 0 287.789 0 251.5C0 215.21 29.3624 185.811 65.6066 185.811H310.829C347.073 185.811 376.435 215.21 376.435 251.5C376.435 287.789 347.073 317.189 310.829 317.189Z" fill="#4EB6B8"/>
</g>
</svg>
