<svg width="685" height="554" viewBox="0 0 685 554" fill="none" xmlns="http://www.w3.org/2000/svg">
<g opacity="0.2">
<path d="M72.2963 144.698H676.704C716.644 144.698 749 112.318 749 72.3489C749 32.3799 716.644 0 676.704 0H72.2963C32.3563 0 0 32.3799 0 72.3489C0 112.318 32.3563 144.698 72.2963 144.698Z" fill="url(#paint0_linear_103_8)"/>
<path d="M241.915 144.698H676.704C716.644 144.698 749 112.318 749 72.3489C749 32.3799 716.644 0 676.704 0H241.915C201.975 0 169.618 32.3799 169.618 72.3489C169.365 112.318 201.975 144.698 241.915 144.698Z" fill="#DD5228"/>
<path d="M311.43 554H676.704C715.127 554 746.219 522.885 746.219 484.434C746.219 442.947 712.599 409.049 670.89 409.049H311.43C271.996 409.049 240.145 440.923 240.145 480.386V482.157C240.145 522.126 271.996 554 311.43 554Z" fill="url(#paint1_linear_103_8)"/>
<path d="M560.928 554H676.704C716.644 554 749 521.62 749 481.651C749 441.682 716.644 409.302 676.704 409.302H560.928C520.989 409.302 488.632 441.682 488.632 481.651C488.632 521.62 520.989 554 560.928 554Z" fill="#F5AC3F"/>
<path d="M179.224 349.349H672.912C711.841 349.349 743.439 317.728 743.439 278.771V274.976C743.439 236.019 711.841 204.398 672.912 204.398H179.224C140.296 204.398 108.697 236.019 108.697 274.976V278.771C108.697 317.728 140.296 349.349 179.224 349.349Z" fill="url(#paint2_linear_103_8)"/>
<path d="M406.477 349.349H676.704C716.644 349.349 749 316.969 749 277C749 237.031 716.644 204.651 676.704 204.651H406.477C366.537 204.651 334.181 237.031 334.181 277C334.181 316.969 366.537 349.349 406.477 349.349Z" fill="#4EB6B8"/>
</g>
<defs>
<linearGradient id="paint0_linear_103_8" x1="749" y1="72.3694" x2="-0.0831808" y2="72.3694" gradientUnits="userSpaceOnUse">
<stop offset="0.2254"/>
<stop offset="1" stop-color="#DD5228"/>
</linearGradient>
<linearGradient id="paint1_linear_103_8" x1="1125.66" y1="481.631" x2="278.998" y2="481.631" gradientUnits="userSpaceOnUse">
<stop offset="0.1133"/>
<stop offset="1" stop-color="#F5AC3F"/>
</linearGradient>
<linearGradient id="paint2_linear_103_8" x1="743.413" y1="277" x2="108.74" y2="277" gradientUnits="userSpaceOnUse">
<stop offset="0.2254"/>
<stop offset="1" stop-color="#4EB6B8"/>
</linearGradient>
</defs>
</svg>
