<svg width="38" height="38" viewBox="0 0 38 38" fill="none" xmlns="http://www.w3.org/2000/svg">
<path d="M19.4442 37.112C29.6924 37.112 38.0002 28.8042 38.0002 18.556C38.0002 8.3078 29.6924 0 19.4442 0C9.19599 0 0.888184 8.3078 0.888184 18.556C0.888184 28.8042 9.19599 37.112 19.4442 37.112Z" fill="white"/>
<path d="M24.6323 8.4541H15.0173C13.5128 8.45595 12.0705 9.05448 11.0068 10.1184C9.94312 11.1823 9.34485 12.6247 9.34326 14.1291V23.7441C9.34485 25.2487 9.94326 26.6913 11.0072 27.7552C12.0711 28.8191 13.5136 29.4175 15.0183 29.4191H24.6333C26.1379 29.4175 27.5804 28.8191 28.6443 27.7552C29.7083 26.6913 30.3067 25.2487 30.3083 23.7441V14.1291C30.3067 12.6243 29.7081 11.1816 28.644 10.1177C27.5798 9.05372 26.1371 8.45543 24.6323 8.4541V8.4541ZM19.8253 24.6691C18.6916 24.6691 17.5834 24.3329 16.6407 23.7031C15.6981 23.0732 14.9634 22.178 14.5296 21.1306C14.0957 20.0833 13.9822 18.9307 14.2034 17.8188C14.4246 16.7069 14.9705 15.6856 15.7721 14.884C16.5738 14.0823 17.5951 13.5364 18.707 13.3152C19.8189 13.0941 20.9714 13.2076 22.0188 13.6414C23.0662 14.0753 23.9614 14.81 24.5912 15.7526C25.2211 16.6952 25.5573 17.8034 25.5573 18.9371C25.5554 20.4568 24.9509 21.9136 23.8764 22.9882C22.8018 24.0627 21.3449 24.6672 19.8253 24.6691V24.6691ZM25.6943 14.5541C25.3592 14.5541 25.0317 14.4548 24.7531 14.2686C24.4745 14.0825 24.2574 13.8179 24.1292 13.5084C24.001 13.1988 23.9674 12.8582 24.0328 12.5296C24.0982 12.201 24.2595 11.8992 24.4964 11.6623C24.7333 11.4254 25.0352 11.264 25.3638 11.1987C25.6924 11.1333 26.033 11.1668 26.3425 11.295C26.6521 11.4233 26.9166 11.6404 27.1028 11.919C27.2889 12.1975 27.3883 12.5251 27.3883 12.8601C27.3867 13.3089 27.2077 13.7388 26.8904 14.0562C26.573 14.3735 26.1431 14.5525 25.6943 14.5541Z" fill="#262629"/>
<path d="M19.8242 14.4331C18.9342 14.4331 18.0642 14.697 17.3242 15.1915C16.5841 15.6859 16.0074 16.3888 15.6668 17.211C15.3262 18.0333 15.2371 18.9381 15.4107 19.811C15.5843 20.6839 16.0129 21.4857 16.6422 22.1151C17.2716 22.7444 18.0734 23.173 18.9463 23.3466C19.8192 23.5203 20.724 23.4312 21.5463 23.0906C22.3686 22.75 23.0714 22.1732 23.5658 21.4332C24.0603 20.6931 24.3242 19.8231 24.3242 18.9331C24.3218 17.7404 23.847 16.5972 23.0036 15.7538C22.1602 14.9104 21.017 14.4355 19.8242 14.4331V14.4331Z" fill="#262629"/>
<path d="M25.6945 12.396C25.6025 12.396 25.5126 12.4233 25.4362 12.4744C25.3597 12.5255 25.3001 12.5981 25.2649 12.683C25.2297 12.768 25.2205 12.8615 25.2384 12.9517C25.2564 13.0419 25.3007 13.1248 25.3657 13.1898C25.4307 13.2548 25.5136 13.2991 25.6038 13.3171C25.694 13.335 25.7875 13.3258 25.8724 13.2906C25.9574 13.2554 26.03 13.1958 26.0811 13.1193C26.1322 13.0429 26.1595 12.953 26.1595 12.861C26.1595 12.7377 26.1105 12.6194 26.0233 12.5322C25.9361 12.445 25.8178 12.396 25.6945 12.396Z" fill="#262629"/>
</svg>
