<svg width="181" height="31" viewBox="0 0 181 31" fill="none" xmlns="http://www.w3.org/2000/svg">
<g clip-path="url(#clip0_31_170)">
<path d="M33.6074 7.28646H3.58479C1.60035 7.28646 0 5.66002 0 3.64323C0 1.62644 1.60035 0 3.58479 0H33.6074C35.5919 0 37.1922 1.62644 37.1922 3.64323C37.1922 5.66002 35.5919 7.28646 33.6074 7.28646Z" fill="url(#paint0_linear_31_170)"/>
<path d="M25.1896 7.28646H3.58479C1.60035 7.28646 0 5.66002 0 3.64323C0 1.62644 1.60035 0 3.58479 0H25.1576C27.142 0 28.7424 1.62644 28.7424 3.64323C28.7744 5.66002 27.174 7.28646 25.1896 7.28646Z" fill="#DD5228"/>
<path d="M21.7328 27.9423H3.58482C1.6964 27.9423 0.128052 26.3484 0.128052 24.4292C0.128052 22.3473 1.79242 20.6233 3.87288 20.6233H21.7328C23.6853 20.6233 25.2856 22.2497 25.2856 24.234V24.3316C25.2536 26.3158 23.6853 27.9423 21.7328 27.9423Z" fill="url(#paint1_linear_31_170)"/>
<path d="M9.34607 27.9423H3.58479C1.60035 27.9423 0 26.2833 0 24.2665C0 22.2497 1.60035 20.6233 3.58479 20.6233H9.31406C11.2985 20.6233 12.8989 22.2497 12.8989 24.2665C12.9309 26.2833 11.3305 27.9423 9.34607 27.9423Z" fill="#F5AC3F"/>
<path d="M28.2943 17.5981H3.77686C1.85643 17.5981 0.288086 16.0042 0.288086 14.0525V13.8573C0.288086 11.9056 1.85643 10.3116 3.77686 10.3116H28.2943C30.2147 10.3116 31.783 11.9056 31.783 13.8573V14.0525C31.783 16.0367 30.2147 17.5981 28.2943 17.5981Z" fill="url(#paint2_linear_31_170)"/>
<path d="M16.9958 17.5981H3.58479C1.60035 17.5981 0 15.9717 0 13.9549C0 11.9381 1.60035 10.3116 3.58479 10.3116H16.9958C18.9802 10.3116 20.5805 11.9381 20.5805 13.9549C20.6126 15.9717 18.9802 17.5981 16.9958 17.5981Z" fill="#4EB6B8"/>
<path d="M44.0417 24.7545C43.6897 24.3641 43.4976 23.8762 43.4976 23.2581V4.65162C43.4976 4.03357 43.6577 3.54564 44.0097 3.22035C44.3618 2.89506 44.8419 2.69989 45.418 2.69989H56.3965C57.6767 2.69989 58.3169 3.25288 58.3169 4.35886C58.3169 5.43231 57.6767 5.9853 56.3965 5.9853H47.4665V12.1007H55.7883C57.0686 12.1007 57.7088 12.6537 57.7088 13.7597C57.7088 14.8332 57.0686 15.3861 55.7883 15.3861H47.4665V23.2581C47.4665 23.8762 47.2745 24.3641 46.9224 24.7545C46.5703 25.1448 46.0902 25.34 45.4821 25.34C44.8739 25.3074 44.3938 25.1123 44.0417 24.7545Z" fill="#002F41"/>
<path d="M61.1015 5.85519C60.6854 5.46485 60.4614 4.94438 60.4614 4.32634C60.4614 3.70829 60.6854 3.18783 61.1015 2.79748C61.5176 2.40713 62.0937 2.21196 62.7979 2.21196C63.47 2.21196 64.0462 2.40713 64.4622 2.79748C64.8783 3.18783 65.1024 3.67576 65.1024 4.32634C65.1024 4.97691 64.8783 5.46485 64.4622 5.85519C64.0462 6.24554 63.47 6.44071 62.7659 6.44071C62.0617 6.44071 61.5176 6.24554 61.1015 5.85519ZM61.3896 24.8195C61.0375 24.4942 60.8455 24.0063 60.8455 23.4208V11.1249C60.8455 10.5068 61.0375 10.0514 61.3896 9.72613C61.7416 9.40084 62.2218 9.23819 62.7659 9.23819C63.342 9.23819 63.7901 9.40084 64.1742 9.72613C64.5583 10.0514 64.7503 10.5068 64.7503 11.1249V23.4208C64.7503 24.0388 64.5583 24.4942 64.1742 24.8195C63.7901 25.1448 63.342 25.3074 62.7659 25.3074C62.2218 25.3074 61.7416 25.1448 61.3896 24.8195Z" fill="#002F41"/>
<path d="M82.6102 23.4858C82.6102 23.9412 82.4182 24.3641 82.0661 24.7544C81.714 25.1123 81.2979 25.3074 80.8178 25.3074C80.3057 25.3074 79.8576 25.0797 79.4735 24.6243L75.0566 19.68L70.6396 24.6243C70.2555 25.0472 69.8074 25.2749 69.2953 25.2749C68.8472 25.2749 68.4311 25.0797 68.079 24.7219C67.727 24.3641 67.5349 23.9412 67.5349 23.4858C67.5349 22.9979 67.727 22.575 68.111 22.1847L72.6881 17.1427L68.3671 12.361C67.983 11.9706 67.791 11.5477 67.791 11.0598C67.791 10.5719 67.983 10.149 68.3351 9.79118C68.6872 9.43337 69.1033 9.27072 69.5514 9.27072C70.0635 9.27072 70.5116 9.49842 70.8957 9.9213L75.0566 14.5729L79.2175 9.9213C79.6016 9.49842 80.0497 9.27072 80.5618 9.27072C81.0419 9.27072 81.458 9.43337 81.8101 9.79118C82.1621 10.149 82.3222 10.5719 82.3222 11.0598C82.3222 11.5477 82.1301 11.9706 81.746 12.361L77.4571 17.1427L82.0661 22.1847C82.4182 22.575 82.6102 22.9979 82.6102 23.4858Z" fill="#002F41"/>
<path d="M94.7729 24.7545C94.4209 24.3641 94.2288 23.8762 94.2288 23.2581V4.65162C94.2288 4.03357 94.3889 3.54564 94.7409 3.22035C95.093 2.89506 95.5731 2.69989 96.1492 2.69989H107.128C108.408 2.69989 109.048 3.25288 109.048 4.35886C109.048 5.43231 108.408 5.9853 107.128 5.9853H98.1977V12.1007H106.52C107.8 12.1007 108.44 12.6537 108.44 13.7597C108.44 14.8332 107.8 15.3861 106.52 15.3861H98.1977V23.2581C98.1977 23.8762 98.0057 24.3641 97.6536 24.7545C97.3015 25.1448 96.8214 25.34 96.2133 25.34C95.6371 25.3074 95.157 25.1123 94.7729 24.7545Z" fill="#002F41"/>
<path d="M121.083 9.62854C121.403 9.88877 121.563 10.3116 121.563 10.8646C121.563 11.4502 121.435 11.873 121.147 12.1333C120.891 12.3935 120.379 12.5887 119.674 12.6862L118.746 12.7838C117.53 12.9139 116.602 13.3368 116.026 14.0525C115.45 14.7681 115.161 15.6789 115.161 16.7524V23.4208C115.161 24.0388 114.969 24.4942 114.585 24.8195C114.201 25.1448 113.753 25.3074 113.177 25.3074C112.601 25.3074 112.153 25.1448 111.801 24.8195C111.449 24.4942 111.257 24.0063 111.257 23.4208V11.0923C111.257 10.5068 111.449 10.0514 111.801 9.72612C112.153 9.40083 112.633 9.23819 113.145 9.23819C113.689 9.23819 114.137 9.40083 114.457 9.69359C114.777 9.98635 114.969 10.4418 114.969 11.0273V12.2959C115.353 11.3526 115.962 10.6369 116.73 10.149C117.498 9.62854 118.394 9.36831 119.354 9.30325L119.802 9.27072C120.347 9.23819 120.795 9.33578 121.083 9.62854Z" fill="#002F41"/>
<path d="M123.515 5.85519C123.099 5.46485 122.875 4.94438 122.875 4.32634C122.875 3.70829 123.099 3.18783 123.515 2.79748C123.931 2.40713 124.507 2.21196 125.212 2.21196C125.884 2.21196 126.46 2.40713 126.876 2.79748C127.292 3.18783 127.516 3.67576 127.516 4.32634C127.516 4.97691 127.292 5.46485 126.876 5.85519C126.46 6.24554 125.884 6.44071 125.18 6.44071C124.475 6.44071 123.931 6.24554 123.515 5.85519ZM123.803 24.8195C123.451 24.4942 123.259 24.0063 123.259 23.4208V11.1249C123.259 10.5068 123.451 10.0514 123.803 9.72613C124.155 9.40084 124.636 9.23819 125.18 9.23819C125.756 9.23819 126.204 9.40084 126.588 9.72613C126.972 10.0514 127.164 10.5068 127.164 11.1249V23.4208C127.164 24.0388 126.972 24.4942 126.588 24.8195C126.204 25.1448 125.756 25.3074 125.18 25.3074C124.636 25.3074 124.155 25.1448 123.803 24.8195Z" fill="#002F41"/>
<path d="M145.376 3.05771C145.76 3.383 145.952 3.8384 145.952 4.39139V23.4208C145.952 24.0063 145.76 24.4617 145.408 24.787C145.056 25.1123 144.576 25.3074 144 25.3074C143.424 25.3074 142.944 25.1448 142.592 24.787C142.239 24.4617 142.047 24.0063 142.047 23.4208V22.6401C141.599 23.5184 140.927 24.2015 140.063 24.6894C139.199 25.1773 138.207 25.405 137.118 25.405C135.806 25.405 134.622 25.0797 133.598 24.3966C132.573 23.7135 131.773 22.7702 131.197 21.5341C130.621 20.298 130.333 18.8667 130.333 17.2728C130.333 15.6789 130.621 14.2476 131.197 13.0441C131.773 11.8405 132.573 10.8972 133.598 10.2466C134.622 9.59601 135.806 9.27072 137.118 9.27072C138.239 9.27072 139.199 9.49842 140.063 9.95382C140.927 10.4092 141.567 11.0923 142.047 11.9381V4.32633C142.047 3.80587 142.207 3.383 142.56 3.02518C142.912 2.69989 143.36 2.53725 143.936 2.53725C144.544 2.56978 145.024 2.73242 145.376 3.05771ZM141.055 20.9811C141.727 20.1028 142.079 18.8667 142.079 17.2728C142.079 15.6789 141.727 14.4428 141.055 13.5645C140.383 12.7188 139.423 12.2634 138.207 12.2634C136.958 12.2634 135.998 12.6862 135.294 13.532C134.622 14.3777 134.27 15.5813 134.27 17.1752C134.27 18.7691 134.622 20.0378 135.294 20.916C135.966 21.7943 136.926 22.2497 138.175 22.2497C139.423 22.2823 140.383 21.8594 141.055 20.9811Z" fill="#002F41"/>
<path d="M161.348 10.7996C162.372 11.873 162.884 13.4995 162.884 15.6789V23.4208C162.884 24.0063 162.724 24.4292 162.372 24.787C162.052 25.1123 161.572 25.2749 160.996 25.2749C160.451 25.2749 160.003 25.1123 159.651 24.7545C159.299 24.4292 159.139 23.9738 159.139 23.4208V22.7377C158.787 23.5509 158.211 24.2015 157.475 24.6894C156.707 25.1448 155.842 25.3725 154.818 25.3725C153.794 25.3725 152.866 25.1448 152.034 24.7219C151.201 24.2991 150.529 23.7135 150.049 22.9654C149.569 22.2172 149.345 21.404 149.345 20.4932C149.345 19.3547 149.633 18.4439 150.209 17.7933C150.785 17.1427 151.714 16.6548 152.994 16.362C154.274 16.0693 156.067 15.9066 158.339 15.9066H159.107V15.191C159.107 14.1501 158.883 13.4019 158.435 12.914C157.987 12.426 157.283 12.1983 156.323 12.1983C155.714 12.1983 155.106 12.2959 154.466 12.4586C153.826 12.6537 153.09 12.914 152.258 13.2392C151.714 13.4995 151.329 13.6621 151.073 13.6621C150.689 13.6621 150.401 13.532 150.145 13.2392C149.921 12.979 149.793 12.5887 149.793 12.1658C149.793 11.808 149.889 11.4827 150.049 11.2225C150.241 10.9622 150.529 10.702 150.945 10.4743C151.682 10.0839 152.546 9.75866 153.57 9.53096C154.594 9.30326 155.586 9.17314 156.547 9.17314C158.755 9.20567 160.323 9.72613 161.348 10.7996ZM158.179 21.4365C158.851 20.7209 159.171 19.8101 159.171 18.6716V17.9885H158.595C157.187 17.9885 156.099 18.0535 155.33 18.1836C154.562 18.3137 154.018 18.5414 153.666 18.8667C153.346 19.192 153.154 19.6149 153.154 20.1679C153.154 20.851 153.378 21.404 153.858 21.8269C154.338 22.2497 154.914 22.4774 155.586 22.4774C156.675 22.51 157.539 22.1522 158.179 21.4365Z" fill="#002F41"/>
<path d="M178.215 9.56348C178.503 9.36831 178.792 9.30325 179.144 9.30325C179.624 9.30325 180.04 9.46589 180.456 9.79118C180.84 10.1165 181.032 10.5393 181.032 11.0273C181.032 11.255 180.968 11.5152 180.84 11.7429L172.294 29.9265C171.942 30.6422 171.398 31 170.63 31C170.15 31 169.734 30.8374 169.349 30.5446C168.997 30.2518 168.805 29.8615 168.805 29.3736C168.805 29.1459 168.869 28.8856 168.997 28.5929L171.11 24.0388L165.285 11.7429C165.189 11.5152 165.125 11.2875 165.125 11.0273C165.125 10.5393 165.317 10.1165 165.733 9.79118C166.149 9.46589 166.597 9.27072 167.109 9.27072C167.461 9.27072 167.781 9.36831 168.069 9.53095C168.357 9.72613 168.581 9.98636 168.741 10.3767L173.126 20.2004L177.543 10.4092C177.703 10.0189 177.927 9.75865 178.215 9.56348Z" fill="#002F41"/>
</g>
<defs>
<linearGradient id="paint0_linear_31_170" x1="1.34781e-10" y1="3.64844" x2="37.1857" y2="3.64844" gradientUnits="userSpaceOnUse">
<stop offset="0.2254"/>
<stop offset="1" stop-color="#DD5228"/>
</linearGradient>
<linearGradient id="paint1_linear_31_170" x1="-18.6981" y1="24.281" x2="23.3317" y2="24.281" gradientUnits="userSpaceOnUse">
<stop offset="0.1133"/>
<stop offset="1" stop-color="#F5AC3F"/>
</linearGradient>
<linearGradient id="paint2_linear_31_170" x1="0.277364" y1="13.9647" x2="31.7835" y2="13.9647" gradientUnits="userSpaceOnUse">
<stop offset="0.2254"/>
<stop offset="1" stop-color="#4EB6B8"/>
</linearGradient>
<clipPath id="clip0_31_170">
<rect width="181" height="31" fill="white"/>
</clipPath>
</defs>
</svg>
