<?xml version="1.0" standalone="no"?>
<!DOCTYPE svg PUBLIC "-//W3C//DTD SVG 20010904//EN"
 "http://www.w3.org/TR/2001/REC-SVG-20010904/DTD/svg10.dtd">
<svg version="1.0" xmlns="http://www.w3.org/2000/svg"
 width="446.000000pt" height="441.000000pt" viewBox="0 0 446.000000 441.000000"
 preserveAspectRatio="xMidYMid meet">
<metadata>
Created by potrace 1.16, written by Peter Selinger 2001-2019
</metadata>
<g transform="translate(0.000000,441.000000) scale(0.100000,-0.100000)"
fill="#000000" stroke="none">
<path d="M1220 3137 c-19 -6 -55 -32 -80 -57 -74 -74 -90 -166 -44 -259 32
-64 86 -106 157 -121 38 -9 316 -11 1032 -8 l980 3 55 30 c173 95 151 343 -37
411 -50 17 -2007 19 -2063 1z"/>
<path d="M2261 2472 c42 -21 62 -40 87 -82 31 -51 33 -60 30 -127 -4 -92 -37
-145 -117 -185 l-55 -28 300 1 c176 0 291 4 279 9 -11 5 -15 9 -8 9 8 1 12 57
13 208 0 113 3 210 6 215 3 4 -128 8 -292 8 l-296 0 53 -28z"/>
</g>
</svg>
