<svg width="38" height="38" viewBox="0 0 38 38" fill="none" xmlns="http://www.w3.org/2000/svg">
<circle cx="19.6116" cy="18.7053" r="13.0755" fill="#262629"/>
<path d="M19.098 0C15.4283 0 11.8411 1.08817 8.7899 3.12691C5.73871 5.16565 3.3606 8.06339 1.95629 11.4537C0.551985 14.844 0.184553 18.5746 0.900464 22.1737C1.61637 25.7728 3.38347 29.0788 5.97829 31.6737C8.57312 34.2685 11.8791 36.0356 15.4782 36.7515C19.0774 37.4674 22.808 37.1 26.1983 35.6957C29.5886 34.2914 32.4863 31.9132 34.525 28.8621C36.5638 25.8109 37.652 22.2236 37.652 18.554C37.6514 13.6333 35.6965 8.91436 32.217 5.43493C28.7376 1.95549 24.0186 0.00053033 19.098 0V0ZM27.57 14.466C27.578 14.6487 27.582 14.832 27.582 15.016C27.5931 16.6104 27.2873 18.1911 26.6824 19.6663C26.0774 21.1415 25.1853 22.4818 24.0579 23.6093C22.9305 24.7367 21.5903 25.6289 20.1152 26.234C18.64 26.8391 17.0593 27.145 15.465 27.134V27.134C13.1504 27.1363 10.8842 26.4722 8.93695 25.221C9.27417 25.2606 9.61342 25.2803 9.95295 25.28C11.8712 25.2835 13.7349 24.6413 15.244 23.457C14.355 23.4407 13.4935 23.1469 12.7798 22.6166C12.0662 22.0864 11.5362 21.3464 11.264 20.5C11.9021 20.6232 12.56 20.5983 13.187 20.427C12.2232 20.2324 11.3564 19.7105 10.7336 18.9497C10.1108 18.189 9.77036 17.2362 9.76995 16.253C9.76995 16.234 9.76995 16.216 9.76995 16.199C10.361 16.5284 11.0226 16.7112 11.699 16.732C10.7974 16.1298 10.1592 15.2066 9.91434 14.1505C9.66948 13.0943 9.83634 11.9845 10.381 11.047C11.4503 12.3627 12.7844 13.4389 14.2967 14.2055C15.809 14.9722 17.4656 15.4122 19.159 15.497C18.9458 14.5838 19.0398 13.6257 19.4265 12.7713C19.8132 11.917 20.4709 11.2141 21.2977 10.7716C22.1245 10.329 23.0743 10.1716 23.9996 10.3238C24.925 10.4759 25.7743 10.9291 26.416 11.613C27.3682 11.4243 28.2812 11.0746 29.116 10.579C28.7975 11.5641 28.1323 12.4002 27.244 12.932C28.0883 12.832 28.9128 12.6058 29.69 12.261C29.1186 13.1164 28.3994 13.8631 27.566 14.466H27.57Z" fill="white"/>
</svg>
