<svg width="129" height="129" viewBox="0 0 129 129" fill="none" xmlns="http://www.w3.org/2000/svg">
<path d="M101.952 120.662C112.294 120.662 120.677 112.278 120.677 101.937C120.677 91.5945 112.294 83.2107 101.952 83.2107C91.6097 83.2107 83.2258 91.5945 83.2258 101.937C83.2258 112.278 91.6097 120.662 101.952 120.662Z" fill="#F5AC3F"/>
<path d="M8.32251 79.0494H54.0967V97.7752H8.32251V79.0494Z" fill="#4EB6B8"/>
<path d="M20.4778 120.481L18.576 115.729C18.2598 114.938 17.4962 114.42 16.6452 114.42C15.7942 114.42 15.0306 114.938 14.7123 115.727L12.8106 120.479L10.3221 111.765L6.32104 112.91L10.4823 127.474C10.7258 128.329 11.4873 128.935 12.3757 128.981C13.285 129.045 14.0839 128.502 14.4148 127.676L16.6452 122.102L18.8736 127.676C19.1919 128.469 19.9576 128.983 20.8044 128.983C20.8398 128.983 20.8752 128.983 20.9126 128.981C21.801 128.937 22.5626 128.329 22.806 127.474L26.9673 112.91L22.9662 111.765L20.4778 120.481Z" fill="black"/>
<path d="M43.3648 120.481L41.4631 115.729C41.1469 114.94 40.3812 114.422 39.5302 114.422C38.6792 114.422 37.9156 114.94 37.5973 115.729L35.6956 120.481L33.2071 111.767L29.2061 112.912L33.3673 127.476C33.6108 128.331 34.3723 128.937 35.2607 128.983C36.1845 129.047 36.9689 128.504 37.2998 127.678L39.5323 122.102L41.7607 127.676C42.079 128.469 42.8447 128.983 43.6915 128.983C43.7269 128.983 43.7622 128.983 43.7997 128.981C44.6881 128.937 45.4497 128.329 45.6931 127.474L49.8544 112.91L45.8533 111.765L43.3648 120.481Z" fill="black"/>
<path d="M66.2518 120.481L64.3501 115.729C64.0338 114.94 63.2682 114.422 62.4172 114.422C61.5662 114.422 60.8026 114.94 60.4843 115.729L58.5826 120.481L56.0941 111.767L52.093 112.912L56.2543 127.476C56.4977 128.331 57.2593 128.937 58.1477 128.983C59.0611 129.047 59.8559 128.504 60.1867 127.678L62.4193 122.102L64.6476 127.676C64.966 128.469 65.7316 128.983 66.5785 128.983C66.6138 128.983 66.6492 128.983 66.6867 128.981C67.5751 128.937 68.3366 128.329 68.58 127.474L72.7413 112.91L68.7403 111.765L66.2518 120.481Z" fill="black"/>
<path d="M43.7976 20.8954L46.7396 23.8374C50.7948 19.7823 57.3967 19.7823 61.4519 23.8374L64.3939 20.8954C58.7158 15.2173 49.4778 15.2173 43.7976 20.8954V20.8954Z" fill="black"/>
<path d="M101.952 74.8881C101.248 74.8881 100.56 74.9401 99.871 74.9942V29.1139H59.9559C59.0945 26.6983 56.8058 24.9526 54.0968 24.9526C51.3878 24.9526 49.0991 26.6983 48.2377 29.1139H0V108.178H75.6585C78.4882 120.088 89.1869 128.985 101.952 128.985C116.866 128.985 129 116.851 129 101.937C129 87.0224 116.866 74.8881 101.952 74.8881V74.8881ZM101.952 124.824C99.7149 124.824 97.3326 121.646 95.691 116.501H108.212C106.571 121.646 104.188 124.824 101.952 124.824ZM94.6298 112.34C94.1221 109.824 93.7809 107.028 93.6727 104.017H110.23C110.122 107.028 109.779 109.824 109.273 112.34H94.6298ZM79.1706 104.017H89.5135C89.6092 106.97 89.8964 109.766 90.3645 112.34H81.5904C80.2879 109.799 79.439 106.992 79.1706 104.017V104.017ZM108.212 87.372H95.691C97.3326 82.2266 99.717 79.0494 101.952 79.0494C104.186 79.0494 106.571 82.2266 108.212 87.372ZM109.273 91.5333C109.781 94.0488 110.122 96.8452 110.23 99.8559H93.6727C93.7809 96.8452 94.1242 94.0488 94.6298 91.5333H109.273ZM91.3299 87.372H84.3098C86.9023 84.2365 90.325 81.825 94.222 80.4206C93.0735 82.3327 92.0956 84.6776 91.3299 87.372ZM81.5904 91.5333H90.3645C89.8964 94.107 89.6071 96.9034 89.5135 99.8559H79.1706C79.439 96.8785 80.2879 94.0737 81.5904 91.5333ZM114.39 104.017H124.733C124.462 106.992 123.615 109.799 122.311 112.34H113.537C114.007 109.766 114.296 106.97 114.39 104.017ZM114.39 99.8559C114.294 96.9034 114.007 94.107 113.539 91.5333H122.313C123.615 94.0737 124.464 96.8805 124.735 99.8559H114.39ZM119.593 87.372H112.573C111.808 84.6776 110.83 82.3327 109.679 80.4206C113.578 81.825 116.999 84.2365 119.593 87.372ZM54.0968 29.1139C55.2432 29.1139 56.1774 30.0481 56.1774 31.1946C56.1774 32.341 55.2432 33.2752 54.0968 33.2752C52.9503 33.2752 52.0161 32.341 52.0161 31.1946C52.0161 30.0481 52.9503 29.1139 54.0968 29.1139ZM48.2377 33.2752C49.0991 35.6908 51.3878 37.4365 54.0968 37.4365C56.8058 37.4365 59.0945 35.6908 59.9559 33.2752H95.7097V45.7591H4.16129V33.2752H48.2377ZM4.16129 104.017V49.9204H95.7097V75.6434C83.8001 78.4731 74.9032 89.1717 74.9032 101.937C74.9032 102.64 74.9552 103.328 75.0093 104.017H4.16129ZM84.3098 116.501H91.3299C92.0956 119.195 93.0735 121.54 94.2241 123.452C90.325 122.046 86.9044 119.637 84.3098 116.501ZM109.679 123.452C110.83 121.54 111.808 119.195 112.573 116.501H119.593C116.999 119.637 113.578 122.046 109.679 123.452Z" fill="black"/>
<path d="M24.9678 37.4365H29.1291V41.5978H24.9678V37.4365Z" fill="black"/>
<path d="M16.6453 37.4365H20.8066V41.5978H16.6453V37.4365Z" fill="black"/>
<path d="M8.32251 37.4365H12.4838V41.5978H8.32251V37.4365Z" fill="black"/>
<path d="M70.28 15.0114C61.3561 6.08751 46.8353 6.08751 37.9114 15.0114L40.8534 17.9534C48.1565 10.6524 60.0349 10.6524 67.3379 17.9534L70.28 15.0114Z" fill="black"/>
<path d="M73.222 12.0693L76.1641 9.12727C63.9944 -3.04242 44.197 -3.04242 32.0273 9.12727L34.9694 12.0693C45.5162 1.52251 62.6773 1.52251 73.222 12.0693V12.0693Z" fill="black"/>
<path d="M33.2902 54.0815H8.32251V74.888H33.2902V54.0815ZM29.129 70.7267H12.4838V58.2428H29.129V70.7267Z" fill="#DD5228"/>
<path d="M37.4517 74.888H62.4194V54.0815H37.4517V74.888ZM41.613 58.2428H58.2581V70.7267H41.613V58.2428Z" fill="#4EB6B8"/>
<path d="M91.5483 54.0815H66.5806V74.888H91.5483V54.0815ZM87.387 70.7267H70.7419V58.2428H87.387V70.7267Z" fill="#F5AC3F"/>
<path d="M8.32251 79.0494H12.4838V83.2107H8.32251V79.0494Z" fill="black"/>
<path d="M16.6453 79.0494H62.4195V83.2107H16.6453V79.0494Z" fill="black"/>
<path d="M8.32251 87.3721H54.0967V91.5334H8.32251V87.3721Z" fill="black"/>
<path d="M8.32251 95.6946H54.0967V99.8559H8.32251V95.6946Z" fill="black"/>
</svg>
